<?xml version="1.0" encoding="UTF-8" standalone="no"?>
<svg
   version="1.1"
   width="313.622"
   height="471.664"
   id="svg11"
   sodipodi:docname="icons_train.svg"
   inkscape:version="1.1.1 (c3084ef, 2021-09-22)"
   xmlns:inkscape="http://www.inkscape.org/namespaces/inkscape"
   xmlns:sodipodi="http://sodipodi.sourceforge.net/DTD/sodipodi-0.dtd"
   xmlns="http://www.w3.org/2000/svg"
   xmlns:svg="http://www.w3.org/2000/svg">
  <defs
     id="defs15" />
  <sodipodi:namedview
     id="namedview13"
     pagecolor="#ffffff"
     bordercolor="#111111"
     borderopacity="1"
     inkscape:pageshadow="0"
     inkscape:pageopacity="0"
     inkscape:pagecheckerboard="1"
     showgrid="false"
     inkscape:zoom="1.5243902"
     inkscape:cx="157.112"
     inkscape:cy="235.832"
     inkscape:window-width="1680"
     inkscape:window-height="1005"
     inkscape:window-x="-1"
     inkscape:window-y="23"
     inkscape:window-maximized="0"
     inkscape:current-layer="svg11" />
  <path
     d="M 244.61,368.146 C 267.622,364.437 290.529,340.437 290.529,311.187 L 290.529,97.33 C 290.529,67.138 265.13,39.424 230.622,39.424 L 83,39.424 C 48.493,39.424 23.093,67.138 23.093,97.33 L 23.093,311.187 C 23.093,340.437 46,364.437 69.012,368.146 L 0,471.664 39.816,471.664 89.179,399.297 224.443,399.297 273.806,471.664 313.621,471.664 244.61,368.146 z M 117.934,61.438 C 117.934,56.188 122.5,51.778 127.75,51.778 L 185.872,51.778 C 191.122,51.778 195.688,56.188 195.688,61.438 L 195.688,78.438 C 195.688,83.688 191.372,88.201 185.872,88.201 L 127.75,88.201 C 122.25,88.201 117.934,83.688 117.934,78.438 L 117.934,61.438 z M 55.152,129.688 C 55.152,113.688 65.5,99.726 85,99.726 L 228.622,99.726 C 248.122,99.726 258.471,113.688 258.471,129.688 L 258.471,168.188 C 258.622,186.688 245.122,198.014 228.622,198.014 L 85,198.014 C 68.5,198.014 55,186.688 55.152,168.188 L 55.152,129.688 z M 81.75,336.951 C 67.245,336.951 55.487,325.191 55.487,310.687 55.487,296.183 67.245,284.424 81.75,284.424 96.255,284.424 108.013,296.183 108.013,310.687 108.013,325.191 96.255,336.951 81.75,336.951 z M 205,310.688 C 205,296.184 216.758,284.425 231.263,284.425 245.768,284.425 257.526,296.184 257.526,310.688 257.526,325.192 245.768,336.952 231.263,336.952 216.758,336.952 205,325.191 205,310.688 z M 195.446,16.591999 C 195.446,25.755507 188.01751,33.183998 178.854,33.183998 169.6905,33.183998 162.262,25.755507 162.262,16.591999 162.262,7.428491 169.6905,0 178.854,0 188.01751,0 195.446,7.428491 195.446,16.591999 z M 151.36,16.591999 C 151.36,25.755507 143.93151,33.183998 134.76801,33.183998 125.6045,33.183998 118.17601,25.755507 118.17601,16.591999 118.17601,7.428491 125.6045,0 134.76801,0 143.93151,0 151.36,7.428491 151.36,16.591999 z"
     id="path9" />
  <path
     style="fill:#ffffff;stroke-width:0.656"
     d="m 0.984,471.33283 c 0,-0.18214 15.374587,-23.39019 34.16575,-51.57344 C 53.940913,391.57613 69.069912,368.31463 68.769753,368.06715 68.469587,367.81967 66.748,367.25953 64.944,366.82238 59.858114,365.58998 51.342865,361.13131 46.064908,356.93711 35.66181,348.67015 28.202983,337.00358 24.766564,323.62377 23.691261,319.43703 23.616,311.63469 23.616,204.344 v -114.8 l 1.438738,-5.248 C 30.129265,65.785944 43.231988,50.981951 60.68,44.045117 71.191272,39.866135 67.616629,40.016 156.784,40.016 c 71.3188,0 81.67957,0.12469 86.12766,1.036532 23.61017,4.84 42.35768,23.971597 46.39058,47.341001 0.87881,5.09243 0.98124,19.807027 0.82571,118.610067 l -0.17757,112.7964 -1.48562,5.248 c -3.6988,13.06613 -11.77808,25.13188 -22.0127,32.87418 -4.73316,3.58054 -13.02155,7.70335 -18.15606,9.03117 -1.9844,0.51319 -3.53325,1.26027 -3.44189,1.66019 0.0914,0.39992 15.51651,23.74987 34.27811,51.88879 L 313.24423,471.664 293.72611,471.64586 274.208,471.62771 249.52618,435.40186 224.84436,399.176 156.90867,399.00896 88.972979,398.84191 64.166488,435.24973 39.36,471.65755 l -19.188,0.003 c -10.5534,0.002 -19.188,-0.14585 -19.188,-0.328 z M 93.069712,334.6948 c 10.610158,-4.96508 16.655028,-16.29069 14.862208,-27.84569 -2.18555,-14.08623 -14.377851,-23.76465 -28.453525,-22.5868 -9.010501,0.75399 -17.567381,6.61562 -21.592115,14.79102 -2.007823,4.07847 -2.12628,4.72186 -2.12628,11.54888 0,6.47089 0.184547,7.62353 1.758117,10.98084 1.927192,4.11179 6.665014,9.57299 10.200691,11.75816 7.148603,4.41808 17.608746,4.97659 25.350904,1.35359 z m 149.646928,-0.0842 c 16.26451,-8.00699 20.05237,-29.07905 7.59493,-42.25096 -12.74542,-13.47639 -35.26906,-9.68904 -43.21507,7.26663 -1.58477,3.38169 -1.7685,4.52339 -1.7685,10.98973 0,6.70444 0.14355,7.51829 2.02478,11.48 2.428,5.11312 7.0429,9.86117 11.88925,12.23226 5.01002,2.45118 7.00149,2.83251 13.49164,2.58342 4.87586,-0.18713 6.40481,-0.53955 9.98297,-2.30108 z m -4.34257,-137.7345 c 5.38521,-1.67606 9.05873,-3.9372 12.67163,-7.79969 3.73589,-3.99397 5.4893,-7.34884 6.80428,-13.01891 0.84016,-3.62272 0.97924,-8.59168 0.81287,-29.042 -0.19325,-23.75523 -0.25571,-24.81768 -1.682,-28.6075 -3.28979,-8.74136 -9.62656,-14.92727 -17.84451,-17.41968 -4.18867,-1.27038 -6.13315,-1.296514 -83.66434,-1.124464 L 76.096,100.04 72.16,101.64653 c -5.627122,2.29678 -12.704474,9.40748 -14.702142,14.77141 -2.438511,6.54763 -2.682282,9.53695 -2.670467,32.7476 0.01265,24.8546 0.450768,28.77082 3.891432,34.78447 2.202416,3.84942 7.151768,8.80167 10.590054,10.59624 1.229318,0.64162 3.858723,1.69053 5.843123,2.3309 3.369708,1.08739 8.749079,1.16663 81.44956,1.19957 74.4566,0.0337 78.01423,-0.0185 81.81251,-1.20062 z M 190.55712,87.345453 c 4.62501,-2.480418 4.9074,-3.399913 5.13381,-16.716519 0.19647,-11.555713 0.15473,-12.006206 -1.312,-14.16184 -0.83321,-1.224553 -2.34829,-2.844001 -3.36685,-3.598776 -1.81946,-1.348266 -2.41158,-1.372318 -33.784,-1.372318 -31.03045,0 -31.99685,0.03805 -34.22585,1.347467 -1.26157,0.741108 -2.95897,2.334563 -3.772,3.541012 -1.39064,2.063567 -1.47823,2.858922 -1.47823,13.422767 0,12.862159 0.53462,14.712639 4.98829,17.265963 2.54663,1.460005 2.66756,1.465247 34.05394,1.476 29.41493,0.01008 31.64803,-0.06954 33.76289,-1.203756 z"
     id="path134" />
  <path
     style="fill:#ffffff;stroke-width:0.656"
     d="M 128.986,31.717235 C 122.86437,29.479245 118.77224,23.337838 118.77985,16.4 c 0.006,-5.049285 1.56132,-8.5215554 5.28179,-11.7881732 C 127.42841,1.6557693 130.14085,0.656 134.79408,0.656 c 12.04808,0 19.78949,12.397011 14.39265,23.048201 -3.69278,7.288048 -12.56128,10.805919 -20.20073,8.013034 z"
     id="path173" />
  <path
     style="fill:#ffffff;stroke-width:0.656"
     d="m 173.65308,32.015052 c -2.8882,-0.978396 -7.78674,-5.375189 -9.26381,-8.314944 -3.89645,-7.754928 -0.92845,-16.9478534 6.85259,-21.2247844 3.74287,-2.0573111 9.93159,-2.47309172 13.65492,-0.9173864 9.87664,4.1267243 13.16255,16.5368198 6.64209,25.0855838 -3.70296,4.854839 -12.02933,7.355445 -17.88579,5.371531 z"
     id="path212" />
</svg>
