<?xml version="1.0" encoding="UTF-8" standalone="no"?>
<svg
   width="91"
   height="91"
        viewBox="0 0 12.688359 23.972029"
   version="1.1"
   id="svg5"
   xmlns="http://www.w3.org/2000/svg"
   style="background-color:green"
   xmlns:svg="http://www.w3.org/2000/svg">
  <rect x="-45.5" width="91" height="91" fill="#d38377"/>
  <g id="layer1" transform="translate(-0.26500069,-0.40618996)">
    <g id="g13" transform="matrix(0.26458333,0,0,0.26458333,-24.426974,-16.002739)">
      <path
         fill="#ffffff"
         stroke="#ffffff"
         stroke-width="0.75"
         stroke-miterlimit="10"
         d="m 100.088,117.043 h -6.389 v -54.65 h 30.068 c 1.694,0 3.533,0.208 5.518,0.619 1.987,0.415 3.838,1.192 5.557,2.333 1.721,1.143 3.162,2.731 4.32,4.774 1.165,2.038 1.743,4.687 1.743,7.943 0,2.911 -0.447,5.353 -1.341,7.323 -0.898,1.967 -2.104,3.568 -3.637,4.806 -1.523,1.239 -3.338,2.129 -5.441,2.662 -2.104,0.535 -4.345,0.801 -6.719,0.801 h -23.68 v 23.389 z m 23.68,-29.801 c 1.5,0 2.918,-0.134 4.248,-0.402 1.33,-0.267 2.471,-0.754 3.416,-1.456 0.941,-0.705 1.691,-1.642 2.252,-2.806 0.557,-1.167 0.834,-2.673 0.834,-4.517 0,-1.895 -0.302,-3.45 -0.911,-4.666 -0.604,-1.212 -1.401,-2.162 -2.394,-2.843 -0.992,-0.679 -2.146,-1.14 -3.451,-1.383 -1.307,-0.241 -2.643,-0.363 -3.994,-0.363 h -23.68 v 18.436 z"
         id="path9" />
      <path
         fill="#ffffff"
         stroke="#ffffff"
         stroke-width="0.75"
         stroke-miterlimit="10"
         d="m 140.463,129.95 c 0,3.01 -0.425,5.863 -1.271,8.561 -0.851,2.695 -2.203,5.064 -4.064,7.104 -1.87,2.038 -4.263,3.656 -7.193,4.846 -2.932,1.189 -6.5,1.785 -10.711,1.785 -4.12,0 -7.481,-0.498 -10.094,-1.495 -2.619,-0.995 -4.758,-2.233 -6.431,-3.717 -1.667,-1.479 -2.991,-3.083 -3.96,-4.806 -0.971,-1.727 -1.863,-3.292 -2.684,-4.701 l 5.738,-2.916 c 0.769,1.166 1.535,2.404 2.287,3.716 0.752,1.312 1.726,2.527 2.938,3.644 1.211,1.12 2.748,2.042 4.614,2.771 1.862,0.727 4.293,1.091 7.3,1.091 5.423,0 9.634,-1.312 12.637,-3.935 2.997,-2.621 4.499,-6.604 4.499,-11.948 V 96.429 h 6.395 z"
         id="path11" />
    </g>
    <path
       fill="#ffffff"
       d="M 8.9906943,17.395349 H 8.1223318 L 7.7265152,16.986304 c -0.094192,0.06747 -0.2055813,0.132556 -0.3352271,0.197643 -0.1296458,0.06456 -0.2682875,0.120915 -0.4164542,0.168275 -0.1484312,0.04816 -0.3037416,0.08626 -0.4661958,0.11483 -0.1624542,0.0291 -0.3262312,0.04313 -0.4908021,0.04313 -0.259027,0 -0.509852,-0.03228 -0.7522104,-0.09684 C 5.0230027,17.348783 4.8076319,17.25221 4.6197777,17.123093 4.4313944,16.993712 4.2795236,16.832316 4.1641652,16.638641 4.0482777,16.444702 3.9908631,16.221393 3.9908631,15.967658 c 0,-0.224367 0.057679,-0.4191 0.1733021,-0.5842 0.1153584,-0.1651 0.2516188,-0.303213 0.409575,-0.41619 0.1574271,-0.111919 0.3175,-0.200554 0.4796896,-0.265112 C 5.215884,14.637066 5.3420902,14.593147 5.4315194,14.569335 5.4034734,14.526475 5.3611404,14.471175 5.304784,14.4045 5.247899,14.33729 5.1912777,14.263212 5.1346569,14.181985 5.0783009,14.100495 5.0301465,14.015827 4.9901944,13.927456 c -0.040217,-0.08837 -0.060325,-0.175684 -0.060325,-0.261938 0,-0.152664 0.040217,-0.29501 0.1201208,-0.426773 0.080698,-0.131233 0.1894417,-0.243945 0.3288771,-0.337079 0.1381125,-0.0934 0.3008312,-0.165894 0.4870979,-0.21881 0.1857375,-0.05265 0.3820583,-0.07885 0.5897562,-0.07885 0.2537355,0 0.5019146,0.0381 0.7445375,0.114829 0.2423584,0.07646 0.4765146,0.167481 0.7027334,0.272256 l -0.282575,0.581025 c -0.14605,-0.08149 -0.314325,-0.157956 -0.5045604,-0.229658 -0.1910292,-0.0717 -0.4087813,-0.107421 -0.6535209,-0.107421 -0.098954,0 -0.2024062,0.01085 -0.3108854,0.03254 -0.10795,0.02117 -0.2069041,0.05107 -0.2968625,0.08943 -0.089429,0.03863 -0.1616604,0.08149 -0.2188104,0.129117 -0.056092,0.04789 -0.084402,0.09843 -0.084402,0.150812 0,0.0672 0.021167,0.126736 0.063235,0.179388 0.042863,0.05265 0.087048,0.102923 0.134673,0.150283 l 2.0195645,2.13069 c 0.094192,-0.09578 0.2050521,-0.224632 0.3323167,-0.38735 0.1267354,-0.162455 0.2370666,-0.322792 0.3312583,-0.480484 l 0.5087937,0.337079 c -0.065881,0.119857 -0.1280583,0.224896 -0.187325,0.315648 -0.058738,0.09075 -0.116152,0.174625 -0.1730374,0.25109 -0.056092,0.07646 -0.1153584,0.14949 -0.1764771,0.21881 -0.06059,0.06959 -0.1267354,0.1397 -0.1976438,0.211402 z m -3.107002,-2.338387 c -0.084667,0.02381 -0.1979083,0.05741 -0.339725,0.100542 -0.1404938,0.04339 -0.2804583,0.102129 -0.4196292,0.175948 -0.1383771,0.07435 -0.2590271,0.1651 -0.3598333,0.27252 -0.1016,0.107421 -0.1521354,0.23548 -0.1521354,0.383911 0,0.143404 0.042333,0.270139 0.1272646,0.380206 0.084667,0.110067 0.1965854,0.203465 0.3354916,0.279929 0.1386417,0.07673 0.2939521,0.133879 0.4659313,0.172244 0.1717146,0.03836 0.3429,0.05715 0.5122333,0.05715 0.3481917,0 0.6199187,-0.04286 0.8154458,-0.129117 0.1952625,-0.08573 0.3309938,-0.169333 0.4061354,-0.250825 z"
       id="path15"
       style="stroke-width:0.264583" />
  </g>
</svg>
