<?xml version="1.0" standalone="no"?>
<!DOCTYPE svg PUBLIC "-//W3C//DTD SVG 20010904//EN"
 "http://www.w3.org/TR/2001/REC-SVG-20010904/DTD/svg10.dtd">
<svg version="1.0" xmlns="http://www.w3.org/2000/svg"
 width="700.000000pt" height="700.000000pt" viewBox="0 0 700.000000 700.000000"
 preserveAspectRatio="xMidYMid meet">
<metadata>
Created by potrace 1.14, written by Peter Selinger 2001-2017
</metadata>
<g transform="translate(0.000000,700.000000) scale(0.100000,-0.100000)"
fill="#000000" stroke="none">
<path d="M0 3500 l0 -3500 1658 2 c911 1 1632 3 1602 5 -178 11 -400 55 -550
109 -104 37 -280 126 -375 189 -105 70 -251 207 -336 317 -80 104 -335 546
-323 558 5 5 115 63 245 130 l237 120 82 -132 c45 -73 105 -170 134 -216 59
-96 172 -222 257 -288 74 -57 204 -126 307 -164 286 -104 784 -100 1110 9 342
115 573 350 662 675 55 200 53 132 57 1649 l4 1407 275 0 275 0 -4 -1422 c-3
-1295 -4 -1432 -20 -1528 -70 -423 -198 -693 -446 -940 -132 -132 -235 -204
-413 -290 -216 -105 -433 -159 -733 -183 -22 -2 710 -4 1628 -5 l1667 -2 0
3500 0 3500 -1437 -1 c-915 -1 -1409 -5 -1358 -11 143 -16 326 -58 430 -99
219 -85 408 -237 533 -427 122 -188 170 -355 179 -632 10 -296 -25 -491 -122
-685 -148 -299 -401 -490 -749 -567 -214 -46 -244 -48 -1288 -48 l-988 0 0
-890 c0 -784 -2 -890 -15 -890 -8 0 -15 -7 -15 -15 0 -13 -36 -15 -260 -15
l-260 0 0 2140 0 2140 -825 0 -825 0 0 -3500z m3580 -74 c72 -13 265 -79 285
-97 12 -11 -65 -171 -80 -165 -161 71 -191 79 -292 84 -121 5 -221 -19 -272
-67 -59 -55 -70 -40 329 -460 l285 -301 47 50 c26 28 71 85 100 125 l52 75 25
-17 c14 -9 47 -30 73 -47 26 -17 48 -34 48 -37 0 -13 -114 -177 -162 -232
l-50 -57 111 -118 111 -117 -122 -3 -122 -3 -60 59 -61 60 -49 -30 c-123 -74
-253 -109 -421 -115 -159 -6 -245 10 -363 67 -99 47 -176 120 -218 207 -24 48
-30 73 -32 150 -3 81 -1 99 21 146 46 100 173 203 314 254 37 13 69 26 71 28
2 2 -17 31 -42 64 -60 77 -96 155 -96 206 0 98 94 210 215 259 114 45 224 55
355 32z"/>
<path d="M3185 2689 c-49 -17 -105 -40 -125 -51 -47 -28 -108 -87 -126 -120
-18 -34 -18 -99 0 -141 56 -133 298 -213 536 -177 70 11 215 76 215 97 0 13
-391 423 -403 423 -4 0 -47 -14 -97 -31z"/>
<path d="M2200 5765 l0 -685 940 0 c964 0 1064 3 1213 40 218 54 364 195 423
410 26 92 26 367 0 459 -62 223 -213 368 -439 421 -153 36 -287 40 -1224 40
l-913 0 0 -685z"/>
</g>
</svg>
